<svg width="23.000000" height="23.000000" viewBox="0 0 23 23" fill="none" xmlns="http://www.w3.org/2000/svg" xmlns:xlink="http://www.w3.org/1999/xlink">
	<defs/>
	<circle id="椭圆 2" cx="11.500000" cy="11.500000" r="11.500000" fill="#DDE3E8" fill-opacity="1.000000"/>
	<path id="path" d="M19.71 16.59L19.68 16.63C17.99 19.39 14.91 21.11 11.66 21.11L11.65 21.11C8.39 21.11 5.32 19.39 3.62 16.63L3.6 16.59L2 16.59L2.06 16.71C2.17 16.93 2.29 17.14 2.42 17.35C2.55 17.56 2.69 17.76 2.83 17.96C2.97 18.16 3.12 18.36 3.27 18.55C3.43 18.74 3.59 18.92 3.76 19.1C3.93 19.28 4.1 19.45 4.28 19.62C4.46 19.78 4.65 19.94 4.84 20.1C5.03 20.25 5.22 20.4 5.42 20.54C5.63 20.68 5.83 20.82 6.04 20.94C6.25 21.07 6.47 21.19 6.68 21.3C6.9 21.42 7.12 21.52 7.35 21.62C7.58 21.72 7.8 21.81 8.04 21.89C8.27 21.97 8.5 22.04 8.74 22.11C8.98 22.17 9.22 22.23 9.46 22.28C9.7 22.33 9.94 22.37 10.18 22.41C10.43 22.44 10.67 22.47 10.92 22.48C11.16 22.5 11.41 22.51 11.65 22.51C11.9 22.51 12.15 22.5 12.39 22.48C12.64 22.47 12.88 22.44 13.12 22.41C13.37 22.37 13.61 22.33 13.85 22.28C14.09 22.23 14.33 22.17 14.57 22.11C14.8 22.04 15.04 21.97 15.27 21.89C15.5 21.81 15.73 21.72 15.96 21.62C16.18 21.52 16.4 21.42 16.62 21.3C16.84 21.19 17.06 21.07 17.27 20.94C17.48 20.82 17.68 20.68 17.88 20.54C18.08 20.4 18.28 20.25 18.47 20.1C18.66 19.94 18.85 19.78 19.03 19.62C19.21 19.45 19.38 19.28 19.55 19.1C19.72 18.92 19.88 18.74 20.03 18.55C20.19 18.36 20.34 18.16 20.48 17.96C20.62 17.76 20.76 17.56 20.88 17.35C21.01 17.14 21.13 16.93 21.25 16.71L21.31 16.59L19.71 16.59ZM3.62 6.87C5.32 4.11 8.39 2.39 11.65 2.39L11.66 2.39C14.91 2.39 17.99 4.11 19.69 6.87L19.71 6.91L21.31 6.91L21.25 6.79C21.13 6.57 21.01 6.36 20.88 6.15C20.76 5.94 20.62 5.74 20.48 5.54C20.34 5.34 20.19 5.14 20.03 4.95C19.88 4.76 19.72 4.58 19.55 4.4C19.38 4.22 19.21 4.05 19.03 3.88C18.85 3.72 18.66 3.55 18.47 3.4C18.28 3.25 18.08 3.1 17.88 2.96C17.68 2.82 17.48 2.68 17.27 2.56C17.06 2.43 16.84 2.31 16.62 2.2C16.4 2.09 16.18 1.98 15.96 1.88C15.73 1.79 15.5 1.7 15.27 1.61C15.04 1.53 14.81 1.46 14.57 1.39C14.33 1.33 14.09 1.27 13.85 1.22C13.61 1.17 13.37 1.13 13.13 1.09C12.88 1.06 12.64 1.04 12.39 1.02C12.15 1 11.9 1 11.65 1L11.65 1C11.4 1 11.16 1 10.91 1.02C10.67 1.04 10.42 1.06 10.18 1.09C9.94 1.13 9.69 1.17 9.45 1.22C9.21 1.27 8.97 1.33 8.74 1.39C8.5 1.46 8.27 1.53 8.04 1.61C7.8 1.7 7.57 1.79 7.35 1.88C7.12 1.98 6.9 2.09 6.68 2.2C6.46 2.31 6.25 2.43 6.04 2.56C5.83 2.68 5.62 2.82 5.42 2.96C5.22 3.1 5.03 3.25 4.84 3.4C4.65 3.55 4.46 3.72 4.28 3.88C4.1 4.05 3.93 4.22 3.76 4.4C3.59 4.58 3.43 4.76 3.27 4.95C3.12 5.14 2.97 5.34 2.83 5.54C2.68 5.74 2.55 5.94 2.42 6.15C2.29 6.36 2.17 6.57 2.06 6.79L2 6.91L3.6 6.91L3.62 6.87Z" fill="#324350" fill-opacity="1.000000" fill-rule="nonzero"/>
	<path id="path" d="M5.06 15.6C3.88 15.6 2.97 15.35 2.2 14.58L3.19 13.59C3.69 14.08 4.36 14.25 5.08 14.25C5.99 14.25 6.47 13.91 6.47 13.29C6.47 13.01 6.39 12.78 6.23 12.63C6.07 12.49 5.9 12.41 5.54 12.36L4.59 12.23C3.92 12.13 3.42 11.92 3.07 11.58C2.7 11.21 2.51 10.7 2.51 10.05C2.51 8.66 3.55 7.69 5.24 7.69C6.32 7.69 7.1 7.95 7.77 8.59L6.8 9.54C6.31 9.07 5.71 9.01 5.19 9.01C4.38 9.01 3.99 9.46 3.99 9.99C3.98 10.1 4 10.2 4.04 10.3C4.08 10.39 4.14 10.48 4.22 10.55C4.37 10.69 4.62 10.81 4.94 10.86L5.87 10.99C6.58 11.09 7.03 11.28 7.36 11.59C7.78 11.98 7.97 12.55 7.97 13.24C7.97 14.75 6.7 15.6 5.06 15.6ZM9.41 15.54L9.41 7.75L14.56 7.75L14.56 9.11L10.93 9.11L10.93 10.93L14.02 10.93L14.02 12.29L10.93 12.29L10.93 14.18L14.56 14.18L14.56 15.54L9.41 15.54ZM20.8 14.75C20.25 15.3 19.58 15.6 18.69 15.6C17.8 15.6 17.11 15.3 16.56 14.75C15.77 13.96 15.79 12.99 15.79 11.64C15.79 10.3 15.77 9.33 16.56 8.54C17.11 7.99 17.8 7.69 18.69 7.69C19.58 7.69 20.25 7.99 20.8 8.54C21.59 9.33 21.58 10.3 21.58 11.64C21.58 12.99 21.59 13.96 20.8 14.75ZM19.67 9.46C19.45 9.21 19.1 9.04 18.69 9.04C18.27 9.04 17.92 9.21 17.7 9.46C17.4 9.79 17.32 10.15 17.32 11.64C17.32 13.14 17.4 13.5 17.7 13.83C17.92 14.08 18.27 14.25 18.69 14.25C19.1 14.25 19.45 14.08 19.67 13.83C19.96 13.5 20.05 13.14 20.05 11.64C20.05 10.15 19.96 9.79 19.67 9.46Z" fill="#324350" fill-opacity="1.000000" fill-rule="nonzero"/>
</svg>
